PathFileType	4	(X/Y/Z)	/Users/niels/Desktop/University/Third Semester/Perception and Action/Exam/Gymnastics Motion Tracking/Code for Gym Tracking/Analyzed Data/Webcam_Backflip/id1_8_trajectory_Sports2D/id1_8_trajectory_Sports2D_px_person00.trc
DataRate	CameraRate	NumFrames	NumMarkers	Units	OrigDataRate	OrigDataStartFrame	OrigNumFrames
29.71698113207547	29.71698113207547	8	22	m	29.71698113207547	26	106
Frame#	Time	Hip			RHip			RKnee			RAnkle			RBigToe			RSmallToe			RHeel			LHip			LKnee			LAnkle			LBigToe			LSmallToe			LHeel			Neck			Head			Nose			RShoulder			RElbow			RWrist			LShoulder			LElbow			LWrist		
		X1	Y1	Z1	X2	Y2	Z2	X3	Y3	Z3	X4	Y4	Z4	X5	Y5	Z5	X6	Y6	Z6	X7	Y7	Z7	X8	Y8	Z8	X9	Y9	Z9	X10	Y10	Z10	X11	Y11	Z11	X12	Y12	Z12	X13	Y13	Z13	X14	Y14	Z14	X15	Y15	Z15	X16	Y16	Z16	X17	Y17	Z17	X18	Y18	Z18	X19	Y19	Z19	X20	Y20	Z20	X21	Y21	Z21	X22	Y22	Z22
26	0.8749206349206348	0.9617338382155368	-0.6396614432529881	0.0	0.96341416385797	-0.6340754989210906	0.0	0.9742006890228329	-0.7624669691564171	0.0	0.9533774470682765	-0.8897001007942739	0.0	0.9895871245145212	-0.9131788176425861	0.0	0.9812067197339697	-0.9180530336309018	0.0	0.9416707415401316	-0.9066339999276132	0.0	0.9606933996948154	-0.632186342929989	0.0	0.9721851197035445	-0.7616567530923797	0.0	0.9577739592993404	-0.8793735088287145	0.0	0.9947929503852578	-0.9049672141513267	0.0	0.9908501437959178	-0.8986160642550987	0.0	0.945042470821693	-0.8950409243551187	0.0	0.9743978055331117	-0.46768731709874034	0.0	1.0051953923354302	-0.3827151965456643	0.0	1.0190153476110086	-0.4326473184149147	0.0	0.9744860569636167	-0.4824155795665013	0.0	1.06677205305393	-0.46087349878683803	0.0	1.1263068636452305	-0.4153276598807819	0.0	0.9628466635324372	-0.47877598626921775	0.0	1.0469242393756262	-0.463491673835036	0.0	1.1177810600435543	-0.4208558128746955	0.0
27	0.9085714285714285	0.960669869141421	-0.6292490397582446	0.0	0.9624607547251226	-0.623085507396933	0.0	0.9755039340148662	-0.751462624584622	0.0	0.9532080048061721	-0.8789064576926023	0.0	0.9913225170239103	-0.9044104817069881	0.0	0.9822283991419098	-0.908928368182615	0.0	0.9409248951079124	-0.8965785096282886	0.0	0.9590646847189966	-0.6210533742053523	0.0	0.9729623665812686	-0.7506356130360258	0.0	0.9577861423029372	-0.8684918009000873	0.0	0.994441452597792	-0.8966191419641156	0.0	0.9917413204171674	-0.8900579518338669	0.0	0.9446507538419009	-0.8843038757988078	0.0	0.975142195682731	-0.4572224886523545	0.0	1.0069290352926399	-0.3719120666238276	0.0	1.0201098303498277	-0.4217815930692627	0.0	0.9752616404723554	-0.47105226387652305	0.0	1.0677231860612242	-0.4507572552934038	0.0	1.1278995966414078	-0.40591728756577494	0.0	0.9635533998231812	-0.467552439263083	0.0	1.047763780772135	-0.45347369403995047	0.0	1.1190038686153125	-0.41136437442393614	0.0
28	0.9422222222222221	0.9591835438388409	-0.6177896650151935	0.0	0.9610375347560741	-0.611117650702387	0.0	0.9767682818336311	-0.7395291251153281	0.0	0.9530819229593703	-0.8671393452246619	0.0	0.9933425311870053	-0.8941390802882522	0.0	0.9835124317308586	-0.8984027254039652	0.0	0.9403286053370381	-0.8856129607236805	0.0	0.9575582404687395	-0.6089196471333381	0.0	0.9740718803124625	-0.7385942358678369	0.0	0.9579483554667905	-0.8566961565960762	0.0	0.9945473334873766	-0.886733363832931	0.0	0.992912504621254	-0.8801127222944525	0.0	0.9445001789186616	-0.872835999951739	0.0	0.9761882318782509	-0.44539584539069654	0.0	1.0091969374489236	-0.3600058915241022	0.0	1.0216767122856913	-0.4099093995858412	0.0	0.9761872349911718	-0.45834957107004065	0.0	1.0690227564633967	-0.4394659969548914	0.0	1.129663989950018	-0.3954756133898252	0.0	0.9649074728651554	-0.4549521751615558	0.0	1.049503121161845	-0.4423450603353102	0.0	1.1207052011382557	-0.4006055641359092	0.0
29	0.9758730158730158	0.9574664770878948	-0.6064621583876391	0.0	0.9591911008482641	-0.5994314346669554	0.0	0.9776682110307359	-0.7280103860486454	0.0	0.9529664449924685	-0.8557940279558011	0.0	0.9952960244698718	-0.8836930916832009	0.0	0.9847632066735929	-0.8879086370772243	0.0	0.9399751519222126	-0.8750737434379428	0.0	0.956371894528644	-0.5970864938924824	0.0	0.9752070194398336	-0.727007603401725	0.0	0.958212107496281	-0.8453903883269364	0.0	0.9951230625452436	-0.8764799868003987	0.0	0.9942386313894	-0.8700129238829197	0.0	0.9446048272904963	-0.8620589800205444	0.0	0.9773718624954584	-0.4335028416251177	0.0	1.0115501013769785	-0.34831275028655334	0.0	1.0234484188537054	-0.3983028282263548	0.0	0.9771186731822356	-0.44564729318991697	0.0	1.0705141948999868	-0.42827400057405113	0.0	1.1316158680098107	-0.3851428508637371	0.0	0.9667566249139237	-0.4423751814420362	0.0	1.0517757874021971	-0.4313209262809854	0.0	1.1228399381480125	-0.38985541573111593	0.0
30	1.0095238095238095	0.9557159900386111	-0.5963473026956551	0.0	0.9570509170592564	-0.589150274887732	0.0	0.978093383941556	-0.718023181756695	0.0	0.952850038109901	-0.8460600671244699	0.0	0.9968864894906592	-0.8743545339098265	0.0	0.9856986024655033	-0.8787340648657002	0.0	0.9398651652492868	-0.8660501944681962	0.0	0.9555598540807394	-0.5866977667521437	0.0	0.9761058358490369	-0.7170611093075844	0.0	0.9584982126337984	-0.8356931239192652	0.0	0.9961198892481911	-0.8670014668106022	0.0	0.9956048280960926	-0.8608488491643648	0.0	0.9449235126337951	-0.8529939833702476	0.0	0.9785367199317474	-0.42285509747248295	0.0	1.0136359126191663	-0.33800386775350405	0.0	1.0251199975061271	-0.3882052139518021	0.0	0.977931265602278	-0.4342516135210528	0.0	1.0720267660401983	-0.41860597179299136	0.0	1.1338373190008009	-0.3762464904859979	0.0	0.9687749637718546	-0.4310918964340836	0.0	1.054212429372114	-0.4216447044019027	0.0	1.1253580001792305	-0.3805778414663208	0.0
31	1.043174603174603	0.9541054316843463	-0.5883006766310266	0.0	0.9548675911612108	-0.5811206988930053	0.0	0.9781656424468109	-0.7103596829634697	0.0	0.9527563025523872	-0.8387393123084543	0.0	0.9980022013806135	-0.8670182672725936	0.0	0.9862549555991442	-0.8716848783872647	0.0	0.9399153348526411	-0.8592489815078187	0.0	0.9550023263168493	-0.578584541933668	0.0	0.9766232233724466	-0.7094991658428086	0.0	0.9587034403929147	-0.8283075043840122	0.0	0.997373245205039	-0.8592213420378141	0.0	0.9968679293043197	-0.8534226285562158	0.0	0.9453053308974646	-0.8462094188937967	0.0	0.9795660840271082	-0.41450830192731253	0.0	1.0153247602253934	-0.3299906943546183	0.0	1.0264791918897171	-0.38061623806194617	0.0	0.9785737898768093	-0.42527312558647173	0.0	1.0733874921815787	-0.4119000232755585	0.0	1.1364144149013313	-0.3702922528326711	0.0	0.9705045082066459	-0.4220851624889215	0.0	1.0564128672313529	-0.41455459021917285	0.0	1.1281517276088722	-0.37433030355010855	0.0
32	1.0768253968253967	0.9527166701451264	-0.5829076496200664	0.0	0.9528841030730034	-0.5758927362636008	0.0	0.9781258715421813	-0.7055241353374179	0.0	0.9526901865406899	-0.8342605164079266	0.0	0.9987018177798102	-0.8621481493864055	0.0	0.9865678488450577	-0.8670905779248256	0.0	0.9399811997138405	-0.8550508746937918	0.0	0.9544989609838873	-0.5732909714767894	0.0	0.9767626277598976	-0.7047208868294235	0.0	0.9587542756655486	-0.8236015884445346	0.0	0.9986561129017706	-0.8537794621468331	0.0	0.9979049386467994	-0.8482729073258208	0.0	0.9455702157096566	-0.8419859460924725	0.0	0.9803807704603685	-0.4091469528554204	0.0	1.0166538824683782	-0.3249272575075891	0.0	1.027465053791171	-0.37617983884366835	0.0	0.9790442173389898	-0.41951309049418994	0.0	1.0744028026677899	-0.40945323455166216	0.0	1.1393576229750244	-0.36895823115903514	0.0	0.9715551444520031	-0.41607544589888434	0.0	1.0580023787558717	-0.41128312141018314	0.0	1.131039255895587	-0.37273109350665745	0.0
33	1.1104761904761904	0.951548327171102	-0.5804984037025045	0.0	0.9512483203753445	-0.573751963421053	0.0	0.9782544883715591	-0.7037608414168167	0.0	0.9526091616176584	-0.832751325002134	0.0	0.9990831245715496	-0.8599024430078456	0.0	0.986779795706473	-0.8649996670244412	0.0	0.9399068126785028	-0.8535682607945281	0.0	0.953915360730427	-0.5711283099205147	0.0	0.9767033414200889	-0.7029015872787003	0.0	0.9586593303608599	-0.8217018365520313	0.0	0.9997889592531992	-0.8510188292332472	0.0	0.9986545787852495	-0.845702370111023	0.0	0.9456509629404098	-0.8404298750201555	0.0	0.9809763515623606	-0.40711244395828233	0.0	1.0176560073157144	-0.323201906417925	0.0	1.0281166647882944	-0.37518183749003037	0.0	0.9793711504782538	-0.4174450754296006	0.0	1.0748097794911844	-0.4123077324396196	0.0	1.142472625915177	-0.3740097082904011	0.0	0.9718085549130716	-0.41358350753580414	0.0	1.05871072428944	-0.41297190594520605	0.0	1.1337524361994782	-0.37740229817490206	0.0
